<svg width="20" height="20" viewBox="0 0 20 20" fill="none" xmlns="http://www.w3.org/2000/svg">
<path fill-rule="evenodd" clip-rule="evenodd" d="M10 0C4.47715 0 0 4.47715 0 10C0 15.5228 4.47715 20 10 20C15.5228 20 20 15.5228 20 10C20 4.47715 15.5228 0 10 0ZM10.7692 6.92308C10.7692 6.49824 10.4248 6.15385 10 6.15385C9.57517 6.15385 9.23077 6.49824 9.23077 6.92308V9.23077H6.92308C6.49824 9.23077 6.15385 9.57517 6.15385 10C6.15385 10.4248 6.49824 10.7692 6.92308 10.7692H9.23077V13.0769C9.23077 13.5018 9.57517 13.8462 10 13.8462C10.4248 13.8462 10.7692 13.5018 10.7692 13.0769V10.7692H13.0769C13.5018 10.7692 13.8462 10.4248 13.8462 10C13.8462 9.57517 13.5018 9.23077 13.0769 9.23077H10.7692V6.92308Z" fill="#442F72"/>
</svg>
